<svg width="15.000000" height="15.000000" viewBox="0 0 15 15" fill="none" xmlns="http://www.w3.org/2000/svg" xmlns:xlink="http://www.w3.org/1999/xlink">
	<desc>
			Created with Pixso.
	</desc>
	<defs/>
	<path d="M0 10C0 15.5142 4.48596 20 10 20C15.514 20 20 15.5142 20 10C20 4.48584 15.514 0 10 0C4.48596 0 0 4.48584 0 10ZM1.5 10C1.5 5.31299 5.31299 1.5 10 1.5C14.687 1.5 18.5 5.31299 18.5 10C18.5 14.687 14.687 18.5 10 18.5C5.31299 18.5 1.5 14.687 1.5 10Z" clip-rule="evenodd" fill="#FFFFFF" fill-opacity="1.000000" fill-rule="evenodd"/>
	<path d="M10.07 10.26C9.97 10.26 9.87 10.24 9.78 10.19L6.95 8.5C6.78 8.4 6.68 8.21 6.68 8.02L6.68 4.38C6.68 4.07 6.93 3.82 7.24 3.82C7.55 3.82 7.8 4.07 7.8 4.38L7.8 7.7L10.36 9.22C10.62 9.38 10.71 9.72 10.55 9.99C10.45 10.17 10.26 10.26 10.07 10.26Z" fill="#FFFFFF" fill-opacity="1.000000" fill-rule="evenodd"/>
</svg>
