<svg width="10.009155" height="10.009277" viewBox="0 0 10.0092 10.0093" fill="none" xmlns="http://www.w3.org/2000/svg" xmlns:xlink="http://www.w3.org/1999/xlink">
	<desc>
			Created with Pixso.
	</desc>
	<defs/>
	<path id="Union" d="M0.222748 0.222656C-0.0742493 0.519531 -0.0742493 0.986328 0.222748 1.2832L3.94391 5.00439L0.222748 8.72559C-0.0742493 9.02295 -0.0742493 9.48926 0.222748 9.78662C0.519714 10.0835 0.98642 10.0835 1.28339 9.78662L5.00458 6.06543L8.72577 9.78662C9.02274 10.0835 9.48944 10.0835 9.78644 9.78662C10.0834 9.48926 10.0834 9.02295 9.78644 8.72559L6.06525 5.00439L9.78644 1.2832C10.0834 0.986328 10.0834 0.519531 9.78644 0.222656C9.48944 -0.0742188 9.02277 -0.0742188 8.72577 0.222656L5.00458 3.94385L1.28339 0.222656C0.98642 -0.0742188 0.519714 -0.0742188 0.222748 0.222656Z" clip-rule="evenodd" fill="#F0F0F0" fill-opacity="1.000000" fill-rule="evenodd"/>
</svg>
