<svg width="10.000000" height="12.000000" viewBox="0 0 10 12" fill="none" xmlns="http://www.w3.org/2000/svg" xmlns:xlink="http://www.w3.org/1999/xlink">
	<desc>
			Created with Pixso.
	</desc>
	<defs/>
	<path d="M1.9 2.43L1.9 2.16C1.92 0.96 2.9 0 4.07 0L7.23 0C7.33 0 7.42 0.04 7.49 0.11L9.9 2.65C9.96 2.72 10 2.81 10 2.9L10 7.33C10 8.47 9.18 9.41 8.09 9.56L8.09 9.74C8.1 10.96 7.18 11.95 5.98 11.99L2.12 12C0.92 11.97 -0.03 10.95 0 9.74L0 4.57C0.02 3.47 0.85 2.56 1.9 2.43ZM2.61 2.17C2.63 1.37 3.28 0.72 4.07 0.72L6.75 0.72L6.75 1.76C6.75 2.64 7.46 3.36 8.33 3.37L9.28 3.37L9.28 7.33C9.29 8.07 8.78 8.69 8.09 8.83L8.09 5.32C8.09 5.23 8.06 5.14 8 5.07L5.59 2.52C5.52 2.45 5.43 2.41 5.33 2.41L2.61 2.41L2.61 2.17ZM8.9 2.64L7.46 1.13L7.46 1.76C7.46 2.25 7.85 2.64 8.33 2.64L8.9 2.64ZM2.17 3.13C1.38 3.13 0.73 3.78 0.71 4.58L0.71 9.74C0.69 10.57 1.33 11.25 2.14 11.27L5.97 11.27C6.76 11.24 7.39 10.57 7.38 9.75L7.38 5.78L6.43 5.78C5.56 5.78 4.85 5.06 4.85 4.18L4.85 3.13L2.17 3.13ZM5.56 3.54L7 5.06L6.43 5.06C5.95 5.06 5.56 4.66 5.56 4.18L5.56 3.54Z" fill="#7B7B7B" fill-opacity="1.000000" fill-rule="evenodd"/>
</svg>
