<svg width="12.666626" height="19.000000" viewBox="0 0 12.6666 19" fill="none" xmlns="http://www.w3.org/2000/svg" xmlns:xlink="http://www.w3.org/1999/xlink">
	<desc>
			Created with Pixso.
	</desc>
	<defs/>
	<path id="Subtract" d="M12.65 6.61L12.65 6.61L12.65 6.61C12.65 6.47 12.65 6.35 12.65 6.28C12.65 4.84 12.16 3.51 11.34 2.46C11.11 2.16 10.67 2.08 10.22 1.99C9.88 1.93 9.53 1.86 9.29 1.7C9.06 1.55 8.96 1.28 8.85 1.02C8.72 0.71 8.6 0.41 8.28 0.3C7.67 0.1 7.01 0 6.32 0C5.29 0 4.31 0.24 3.45 0.68C2.88 0.97 2.26 1.31 1.81 1.75C1.34 2.2 1.04 2.75 0.73 3.33C0.26 4.21 0 5.21 0 6.28C0 7.16 0.09 8.23 0.22 8.84C0.24 8.98 0.27 9.26 0.29 9.61C0.38 10.77 0.52 12.71 1.2 12.86C1.67 12.96 1.95 12.45 2.18 12.02C2.38 11.65 2.55 11.33 2.79 11.49C2.88 11.55 2.81 12.04 2.73 12.67C2.54 14.04 2.25 16.14 3.28 16.12C4.15 16.11 4.12 14.78 4.09 13.69C4.07 12.9 4.06 12.23 4.38 12.26C4.73 12.3 4.66 12.65 4.58 13.05C4.54 13.24 4.5 13.45 4.51 13.64C4.52 13.91 4.6 14.35 5.02 14.39C5.44 14.43 5.64 14.05 5.69 13.81C5.73 13.64 5.71 13.45 5.7 13.26C5.67 12.9 5.64 12.56 5.98 12.56C6.25 12.56 6.12 13.36 5.96 14.38C5.67 16.26 5.25 18.93 6.89 18.99C8.53 19.06 8.25 16.13 8.06 14.09C7.96 13 7.88 12.16 8.14 12.19C8.46 12.22 8.57 12.87 8.69 13.59C8.74 13.9 8.8 14.22 8.87 14.51C9.02 15.08 9.25 15.54 9.68 15.56C10.06 15.58 10.25 15.13 10.35 14.51C10.45 13.84 10.43 12.97 10.42 12.27C10.41 11.6 10.4 11.08 10.49 11C10.91 10.64 11.05 10.96 11.2 11.33C11.35 11.67 11.51 12.05 11.94 11.91C12.73 11.64 12.67 7.89 12.65 6.61ZM4.22 6.89C4.23 6.79 4.24 6.69 4.26 6.6C4.27 6.58 4.27 6.57 4.28 6.56C4.33 6.38 4.36 6.26 4.36 6.06C4.36 5.96 4.34 5.88 4.31 5.8C4.29 5.73 4.27 5.65 4.26 5.55C4.25 5.2 4.48 4.68 4.48 4.68C4.48 4.68 4.57 4.22 4.48 3.94C4.36 3.53 4.12 3.17 3.72 3.14C3.4 3.12 3.35 3.28 3.3 3.46C3.28 3.5 3.27 3.54 3.26 3.58C3.2 3.73 3.25 3.86 3.3 3.99C3.34 4.08 3.37 4.17 3.38 4.29C3.39 4.45 3.36 4.57 3.34 4.7C3.31 4.84 3.28 4.98 3.31 5.16C3.33 5.34 3.37 5.45 3.42 5.59C3.44 5.64 3.46 5.69 3.48 5.75C3.5 5.82 3.53 5.88 3.56 5.93C3.6 6.02 3.63 6.09 3.65 6.21C3.66 6.29 3.66 6.35 3.65 6.41C3.65 6.47 3.64 6.53 3.65 6.6C3.66 6.68 3.66 6.77 3.65 6.85C3.64 7.1 3.63 7.33 3.92 7.33C4.2 7.33 4.21 7.12 4.22 6.89ZM9.29 4.36C9.27 4.3 9.24 4.23 9.22 4.17C9.08 3.83 8.96 3.51 8.51 3.55C8.07 3.59 8.04 3.79 8 4.03C7.99 4.09 7.98 4.15 7.97 4.21C7.91 4.44 7.95 4.59 8.01 4.81C8.01 4.82 8.01 4.83 8.02 4.85C8.05 4.96 8.11 5.05 8.16 5.13C8.23 5.22 8.29 5.32 8.31 5.45C8.33 5.58 8.3 5.68 8.27 5.78C8.23 5.87 8.2 5.97 8.21 6.09C8.22 6.17 8.24 6.24 8.26 6.3C8.28 6.36 8.3 6.42 8.31 6.5C8.32 6.56 8.31 6.61 8.31 6.66C8.3 6.73 8.29 6.79 8.31 6.87C8.37 7.09 8.47 7.32 8.7 7.31C8.89 7.29 8.98 7.14 9.05 6.96C9.09 6.87 9.07 6.79 9.06 6.71C9.05 6.65 9.03 6.58 9.05 6.5C9.07 6.4 9.1 6.33 9.13 6.26C9.15 6.21 9.17 6.15 9.19 6.09C9.22 6.02 9.24 5.95 9.26 5.89C9.35 5.64 9.41 5.44 9.42 5.14C9.42 4.83 9.42 4.64 9.29 4.36ZM2.42 7.52C2.44 7.53 2.45 7.54 2.47 7.55C2.65 7.65 2.7 7.81 2.75 7.99C2.78 8.1 2.82 8.21 2.89 8.33C2.92 8.38 2.94 8.42 2.97 8.47C3.02 8.57 3.07 8.66 3.18 8.77C3.3 8.88 3.42 8.92 3.55 8.96C3.65 9 3.76 9.03 3.87 9.11C4.02 9.21 4.1 9.35 4.18 9.49C4.28 9.66 4.37 9.83 4.6 9.89C4.81 9.94 4.96 9.83 5.12 9.72C5.27 9.61 5.43 9.5 5.63 9.55C5.93 9.61 6.08 9.77 6.28 9.99C6.29 10 6.3 10.02 6.32 10.03C6.43 10.15 6.5 10.32 6.56 10.47C6.62 10.62 6.67 10.74 6.73 10.74C6.8 10.74 6.84 10.61 6.9 10.46C6.95 10.32 7.01 10.15 7.1 10.03C7.12 10.01 7.14 9.98 7.16 9.96C7.27 9.82 7.35 9.71 7.52 9.62C7.69 9.52 7.85 9.55 8.01 9.59C8.15 9.61 8.29 9.64 8.45 9.59C8.75 9.51 8.93 9.43 9.16 9.23C9.32 9.1 9.39 8.98 9.48 8.83C9.51 8.78 9.54 8.73 9.58 8.67C9.84 8.28 10.05 7.84 10.14 7.62C10.24 7.4 10.46 7.41 10.63 7.5C10.83 7.6 10.93 7.84 10.78 8.03C10.72 8.12 10.65 8.26 10.58 8.43C10.47 8.64 10.35 8.91 10.19 9.13C10.19 9.14 10.18 9.15 10.17 9.16C10 9.41 9.89 9.56 9.65 9.76C9.44 9.95 9.3 10.06 9.04 10.18C8.82 10.28 8.69 10.33 8.45 10.35C8.36 10.36 8.28 10.32 8.2 10.29C8.1 10.25 8 10.22 7.89 10.28C7.81 10.32 7.78 10.36 7.73 10.42C7.72 10.43 7.71 10.45 7.69 10.47C7.59 10.59 7.56 10.72 7.53 10.85C7.5 10.99 7.47 11.13 7.35 11.25L7.35 11.25C7.17 11.43 7.04 11.56 6.78 11.57C6.54 11.57 6.41 11.45 6.24 11.29C6.23 11.28 6.21 11.26 6.2 11.25C6.07 11.14 6.02 11.02 5.96 10.9C5.92 10.81 5.88 10.72 5.8 10.62C5.78 10.58 5.75 10.54 5.73 10.51C5.66 10.41 5.6 10.33 5.51 10.28C5.44 10.24 5.36 10.31 5.26 10.39C5.18 10.46 5.09 10.54 4.99 10.57C4.77 10.64 4.63 10.68 4.41 10.62C4.23 10.57 4.15 10.47 4.04 10.36C4 10.32 3.96 10.27 3.92 10.23C3.85 10.16 3.8 10.09 3.77 10.02C3.7 9.91 3.65 9.81 3.5 9.76C3.25 9.69 2.98 9.59 2.71 9.37C2.46 9.16 2.2 8.69 2.2 8.69C2.2 8.69 1.86 8.08 1.78 7.86C1.71 7.65 1.84 7.53 1.95 7.45C2.1 7.34 2.26 7.43 2.42 7.52Z" fill="#FFFFFF" fill-opacity="1.000000" fill-rule="evenodd"/>
</svg>
