<svg width="18.000000" height="27.000000" viewBox="0 0 18 27" fill="none" xmlns="http://www.w3.org/2000/svg" xmlns:xlink="http://www.w3.org/1999/xlink">
	<desc>
			Created with Pixso.
	</desc>
	<defs/>
	<path id="Subtract" d="M17.98 9.4L17.98 9.4L17.98 9.39C17.98 9.19 17.98 9.03 17.98 8.93C17.98 6.88 17.28 5 16.12 3.49C15.8 3.07 15.16 2.95 14.53 2.84C14.04 2.74 13.54 2.65 13.2 2.42C12.88 2.2 12.73 1.82 12.58 1.45C12.4 1.01 12.22 0.58 11.77 0.43C10.9 0.15 9.96 0 8.99 0C7.52 0 6.13 0.34 4.91 0.96C4.1 1.37 3.22 1.86 2.57 2.49C1.91 3.13 1.48 3.92 1.04 4.74C0.37 5.99 0 7.41 0 8.93C0 10.18 0.13 11.69 0.31 12.56C0.35 12.76 0.38 13.16 0.42 13.66C0.54 15.31 0.74 18.06 1.7 18.27C2.38 18.42 2.77 17.7 3.1 17.08C3.38 16.56 3.62 16.11 3.97 16.34C4.1 16.42 4 17.11 3.88 18C3.61 19.96 3.21 22.93 4.66 22.91C5.9 22.89 5.85 21.01 5.81 19.46C5.79 18.33 5.76 17.38 6.23 17.43C6.73 17.48 6.63 17.98 6.51 18.54C6.46 18.82 6.4 19.12 6.41 19.38C6.43 19.77 6.54 20.39 7.14 20.45C7.73 20.51 8.02 19.96 8.09 19.62C8.14 19.39 8.12 19.11 8.1 18.85C8.06 18.33 8.02 17.86 8.5 17.86C8.88 17.86 8.7 18.98 8.48 20.44C8.06 23.11 7.47 26.9 9.79 26.99C12.12 27.08 11.73 22.92 11.46 20.03C11.31 18.47 11.2 17.29 11.56 17.32C12.02 17.37 12.18 18.29 12.35 19.31C12.43 19.75 12.51 20.21 12.61 20.62C12.82 21.44 13.14 22.09 13.76 22.11C14.3 22.14 14.57 21.5 14.7 20.62C14.85 19.68 14.83 18.44 14.81 17.43C14.8 16.49 14.78 15.75 14.91 15.64C15.5 15.12 15.7 15.58 15.92 16.1C16.13 16.59 16.35 17.12 16.97 16.92C18.09 16.55 18.01 11.22 17.98 9.4ZM6.01 9.79C6.01 9.65 6.02 9.51 6.06 9.38C6.07 9.36 6.07 9.34 6.08 9.32C6.15 9.07 6.2 8.9 6.2 8.62C6.2 8.47 6.16 8.36 6.13 8.25C6.1 8.14 6.07 8.03 6.06 7.89C6.05 7.39 6.37 6.65 6.37 6.65C6.37 6.65 6.49 6 6.37 5.61C6.19 5.02 5.85 4.5 5.29 4.47C4.83 4.44 4.77 4.66 4.69 4.92C4.67 4.98 4.65 5.03 4.63 5.09C4.55 5.31 4.62 5.48 4.69 5.67C4.74 5.8 4.8 5.93 4.81 6.09C4.82 6.32 4.78 6.5 4.75 6.68C4.71 6.88 4.67 7.08 4.7 7.34C4.74 7.59 4.79 7.75 4.87 7.94C4.89 8.01 4.92 8.09 4.95 8.17C4.98 8.27 5.02 8.35 5.05 8.43C5.11 8.55 5.16 8.66 5.19 8.83C5.21 8.94 5.2 9.03 5.19 9.11C5.18 9.2 5.18 9.28 5.19 9.38C5.2 9.49 5.2 9.62 5.19 9.74C5.18 10.09 5.16 10.42 5.57 10.42C5.97 10.42 5.98 10.12 6.01 9.79ZM13.21 6.2C13.17 6.11 13.13 6.02 13.1 5.93C12.91 5.44 12.74 5 12.09 5.05C11.47 5.11 11.43 5.39 11.37 5.73C11.36 5.81 11.35 5.9 11.33 5.99C11.24 6.31 11.3 6.53 11.38 6.84C11.39 6.86 11.39 6.87 11.4 6.89C11.44 7.06 11.52 7.18 11.6 7.29C11.7 7.43 11.79 7.56 11.81 7.75C11.84 7.94 11.79 8.08 11.75 8.22C11.7 8.35 11.66 8.48 11.67 8.65C11.68 8.77 11.71 8.87 11.74 8.96C11.77 9.04 11.8 9.13 11.81 9.24C11.82 9.33 11.81 9.4 11.8 9.47C11.79 9.56 11.78 9.65 11.81 9.76C11.9 10.07 12.04 10.41 12.37 10.38C12.64 10.36 12.76 10.15 12.86 9.9C12.91 9.77 12.89 9.66 12.87 9.54C12.86 9.45 12.84 9.35 12.86 9.24C12.88 9.1 12.93 9 12.97 8.89C13.01 8.82 13.04 8.75 13.07 8.65C13.1 8.55 13.13 8.46 13.16 8.37C13.28 8.01 13.37 7.74 13.38 7.3C13.39 6.87 13.38 6.6 13.21 6.2ZM3.44 10.69C3.47 10.7 3.49 10.72 3.51 10.73C3.77 10.88 3.84 11.1 3.91 11.36C3.96 11.51 4 11.68 4.1 11.84C4.15 11.91 4.18 11.97 4.22 12.04C4.3 12.19 4.37 12.31 4.52 12.46C4.69 12.62 4.86 12.68 5.04 12.74C5.19 12.79 5.34 12.83 5.5 12.94C5.71 13.09 5.82 13.29 5.94 13.48C6.08 13.73 6.21 13.97 6.54 14.05C6.84 14.13 7.06 13.97 7.28 13.81C7.49 13.66 7.71 13.5 8 13.57C8.43 13.66 8.64 13.88 8.92 14.2C8.94 14.22 8.96 14.24 8.98 14.26C9.13 14.42 9.24 14.67 9.32 14.88C9.41 15.09 9.48 15.26 9.57 15.26C9.66 15.26 9.73 15.08 9.81 14.86C9.88 14.66 9.97 14.42 10.1 14.26C10.12 14.22 10.15 14.19 10.17 14.15C10.33 13.95 10.44 13.8 10.69 13.67C10.94 13.54 11.16 13.58 11.39 13.62C11.58 13.66 11.79 13.7 12.01 13.64C12.44 13.52 12.69 13.41 13.02 13.12C13.24 12.93 13.34 12.76 13.47 12.55C13.51 12.48 13.56 12.4 13.62 12.32C13.98 11.77 14.28 11.14 14.42 10.83C14.56 10.52 14.86 10.53 15.11 10.66C15.39 10.8 15.53 11.14 15.32 11.42C15.23 11.54 15.14 11.74 15.03 11.98C14.89 12.29 14.72 12.66 14.49 12.98C14.48 12.99 14.47 13.01 14.46 13.02C14.21 13.37 14.05 13.58 13.72 13.88C13.41 14.15 13.22 14.3 12.85 14.47C12.54 14.61 12.35 14.68 12.01 14.71C11.88 14.72 11.76 14.67 11.65 14.63C11.51 14.57 11.37 14.52 11.21 14.6C11.11 14.66 11.06 14.73 10.99 14.81C10.97 14.83 10.95 14.85 10.93 14.88C10.79 15.06 10.74 15.24 10.7 15.42C10.66 15.62 10.62 15.82 10.44 15.99L10.44 15.99C10.19 16.24 10 16.43 9.64 16.44C9.3 16.45 9.11 16.27 8.87 16.05C8.85 16.03 8.83 16.01 8.81 15.99C8.63 15.83 8.56 15.67 8.48 15.49C8.42 15.36 8.36 15.23 8.25 15.09C8.21 15.04 8.17 14.99 8.14 14.94C8.04 14.8 7.96 14.68 7.83 14.6C7.74 14.55 7.62 14.65 7.48 14.77C7.37 14.87 7.24 14.98 7.1 15.02C6.79 15.12 6.58 15.18 6.26 15.09C6.02 15.02 5.89 14.88 5.75 14.72C5.69 14.66 5.63 14.6 5.57 14.54C5.47 14.44 5.41 14.34 5.35 14.24C5.27 14.08 5.19 13.94 4.97 13.88C4.62 13.77 4.23 13.63 3.86 13.32C3.49 13.02 3.13 12.35 3.13 12.35C3.13 12.35 2.64 11.49 2.53 11.18C2.43 10.87 2.62 10.7 2.78 10.59C2.99 10.43 3.21 10.56 3.44 10.69Z" fill="#000000" fill-opacity="1.000000" fill-rule="evenodd"/>
</svg>
