<svg width="40.394531" height="47.050781" viewBox="0 0 40.3945 47.0508" fill="none" xmlns="http://www.w3.org/2000/svg" xmlns:xlink="http://www.w3.org/1999/xlink">
	<desc>
			Created with Pixso.
	</desc>
	<defs>
		<clipPath id="clip1_9974">
			<rect id="Бонусы" rx="0.000000" width="29.000000" height="29.000000" transform="translate(0.500000 0.500000)" fill="white" fill-opacity="0"/>
		</clipPath>
	</defs>
	<g clip-path="url(#clip1_9974)">
		<path id="Star" d="M15 5.57C14.88 5.57 14.61 5.6 14.47 5.89L12.24 10.33C11.89 11.03 11.21 11.52 10.43 11.63L5.45 12.35C5.12 12.39 5.01 12.64 4.97 12.74C4.94 12.84 4.89 13.09 5.12 13.31L8.72 16.76C9.29 17.31 9.56 18.1 9.42 18.88L8.57 23.76C8.52 24.06 8.71 24.24 8.8 24.3C8.89 24.37 9.13 24.51 9.43 24.35L13.88 22.04C14.58 21.68 15.41 21.68 16.11 22.04L20.56 24.35C20.86 24.5 21.1 24.37 21.2 24.3C21.28 24.24 21.47 24.06 21.42 23.76L20.57 18.88C20.43 18.1 20.69 17.31 21.27 16.76L24.87 13.31C25.1 13.09 25.05 12.84 25.02 12.74C24.98 12.64 24.87 12.39 24.54 12.35L19.56 11.63C18.78 11.52 18.1 11.03 17.75 10.33L15.52 5.89C15.38 5.6 15.11 5.57 15 5.57ZM9.15 26.24C8.64 26.24 8.14 26.09 7.72 25.78C6.98 25.24 6.62 24.34 6.77 23.45L7.62 18.57C7.65 18.39 7.59 18.2 7.46 18.08L3.86 14.62C3.19 13.99 2.96 13.05 3.24 12.18C3.52 11.3 4.27 10.67 5.19 10.54L10.17 9.83C10.36 9.8 10.53 9.68 10.61 9.51L12.83 5.07C13.24 4.25 14.07 3.75 15 3.75C15.92 3.75 16.75 4.25 17.16 5.07L19.38 9.51C19.47 9.68 19.63 9.8 19.82 9.83L24.8 10.54C25.72 10.67 26.47 11.3 26.75 12.18C27.03 13.05 26.8 13.99 26.13 14.62L22.53 18.08C22.4 18.2 22.34 18.39 22.37 18.57L23.22 23.45C23.37 24.34 23.01 25.24 22.27 25.78C21.52 26.32 20.55 26.4 19.72 25.97L15.27 23.66C15.1 23.58 14.89 23.58 14.72 23.66L10.27 25.97C9.91 26.15 9.53 26.24 9.15 26.24Z" fill="#FFFFFF" fill-opacity="1.000000" fill-rule="evenodd"/>
	</g>
</svg>
