<svg width="30.270996" height="41.050781" viewBox="0 0 30.271 41.0508" fill="none" xmlns="http://www.w3.org/2000/svg" xmlns:xlink="http://www.w3.org/1999/xlink">
	<desc>
			Created with Pixso.
	</desc>
	<defs/>
	<path id="Union" d="M9.45 5.76C9.69 3.92 11.33 2.5 13.3 2.5L16.69 2.5C18.66 2.5 20.3 3.92 20.54 5.76L23.13 5.76C25.88 5.76 28.12 7.93 28.12 10.59L28.12 14.94C28.12 15.28 27.93 15.59 27.63 15.76C24.39 17.59 20.29 18.66 15.98 18.8L15.98 21.08C15.98 21.61 15.54 22.03 15 22.03C14.45 22.03 14.01 21.61 14.01 21.08L14.01 18.8C9.71 18.66 5.6 17.6 2.36 15.76C2.06 15.59 1.87 15.28 1.87 14.94L1.87 10.58C1.87 7.92 4.11 5.76 6.87 5.76L9.45 5.76ZM18.54 5.76C18.32 4.98 17.57 4.39 16.69 4.39L13.3 4.39C12.42 4.39 11.67 4.98 11.45 5.76L18.54 5.76ZM3.84 14.39C6.95 16.02 10.86 16.91 14.94 16.92C14.96 16.92 14.98 16.92 15 16.92C15.01 16.92 15.03 16.92 15.05 16.92C19.13 16.91 23.05 16.02 26.15 14.39L26.15 10.59C26.15 8.97 24.8 7.66 23.13 7.66L6.87 7.66C5.2 7.66 3.84 8.97 3.84 10.58L3.84 14.39ZM22.61 27.5L7.38 27.5C4.65 27.5 2.36 25.44 2.15 22.82L1.9 19.64C1.86 19.12 2.27 18.66 2.81 18.62C3.36 18.6 3.83 18.98 3.87 19.5L4.12 22.68C4.25 24.31 5.68 25.6 7.38 25.6L22.61 25.6C24.31 25.6 25.74 24.31 25.87 22.68L26.12 19.5C26.16 18.98 26.64 18.6 27.18 18.62C27.72 18.66 28.13 19.12 28.09 19.64L27.84 22.82C27.63 25.44 25.34 27.5 22.61 27.5Z" fill="#FFFFFF" fill-opacity="1.000000" fill-rule="evenodd"/>
</svg>
