<svg width="30.000000" height="30.000000" viewBox="0 0 30 30" fill="none" xmlns="http://www.w3.org/2000/svg" xmlns:xlink="http://www.w3.org/1999/xlink">
	<desc>
			Created with Pixso.
	</desc>
	<defs>
		<clipPath id="clip163_783">
			<rect id="профиль" rx="0.000000" width="29.000000" height="29.000000" transform="translate(0.500000 0.500000)" fill="white" fill-opacity="0"/>
		</clipPath>
	</defs>
	<g clip-path="url(#clip163_783)">
		<path id="Union" d="M11.2 2C10.31 2 9.58 2.76 9.58 3.71L9.58 4.68L3.61 4.68C2.72 4.68 2 5.45 2 6.4L2 26.28C2 27.23 2.72 28 3.61 28L18.03 28C18.5 28 18.89 27.59 18.89 27.08L18.89 3.71C18.89 2.76 18.16 2 17.27 2L11.2 2ZM11.3 5.59L11.3 3.82L17.17 3.82L17.17 26.17L3.71 26.17L3.71 6.51L10.44 6.51C10.92 6.51 11.3 6.1 11.3 5.59ZM9.07 10.96C9.07 10.63 8.94 10.3 8.69 10.06C8.22 9.61 7.5 9.65 7.07 10.15L7.06 10.16C6.86 10.4 6.77 10.69 6.77 10.98C6.77 11.31 6.89 11.64 7.15 11.88C7.62 12.33 8.34 12.29 8.76 11.79L8.78 11.78C8.97 11.55 9.07 11.25 9.07 10.96ZM14.13 10.96C14.13 10.63 14 10.3 13.75 10.06C13.28 9.61 12.55 9.65 12.13 10.15L12.12 10.16C11.92 10.4 11.83 10.69 11.83 10.98C11.83 11.31 11.95 11.64 12.2 11.88C12.67 12.33 13.4 12.29 13.82 11.79L13.83 11.78C14.03 11.55 14.13 11.25 14.13 10.96ZM21.09 10.05C20.62 10.05 20.23 10.46 20.23 10.97C20.23 11.47 20.62 11.88 21.09 11.88L26.28 11.88L26.28 26.17L21.09 26.17C20.62 26.17 20.23 26.58 20.23 27.08C20.23 27.59 20.62 28 21.09 28L26.38 28C27.27 28 28 27.23 28 26.28L28 11.77C28 10.82 27.27 10.05 26.38 10.05L21.09 10.05ZM8.78 17.15C8.97 16.92 9.07 16.63 9.07 16.34C9.07 16 8.94 15.67 8.69 15.43C8.22 14.98 7.5 15.02 7.07 15.52L7.06 15.54C6.86 15.77 6.77 16.06 6.77 16.35C6.77 16.68 6.89 17.01 7.15 17.25C7.62 17.7 8.34 17.66 8.76 17.17L8.78 17.15ZM14.13 16.34C14.13 16 14 15.67 13.75 15.43C13.28 14.98 12.56 15.02 12.13 15.52L12.12 15.54C11.92 15.77 11.83 16.06 11.83 16.35C11.83 16.68 11.95 17.01 12.2 17.25C12.67 17.7 13.4 17.66 13.82 17.17L13.83 17.15C14.03 16.92 14.13 16.63 14.13 16.34ZM21.08 15.43C20.61 15.43 20.22 15.83 20.22 16.34C20.22 16.84 20.61 17.25 21.08 17.25L22.61 17.25C23.09 17.25 23.47 16.84 23.47 16.34C23.47 15.83 23.09 15.43 22.61 15.43L21.08 15.43ZM8.78 22.52C8.97 22.29 9.07 22 9.07 21.71C9.07 21.38 8.94 21.05 8.69 20.81C8.22 20.36 7.5 20.4 7.07 20.89L7.06 20.91C6.86 21.14 6.77 21.43 6.77 21.72C6.77 22.06 6.89 22.39 7.15 22.63C7.62 23.08 8.34 23.04 8.76 22.54L8.78 22.52ZM14.13 21.71C14.13 21.38 14 21.05 13.75 20.81C13.28 20.36 12.56 20.4 12.13 20.89L12.12 20.91C11.92 21.14 11.83 21.43 11.83 21.72C11.83 22.06 11.95 22.39 12.2 22.63C12.67 23.08 13.4 23.04 13.82 22.54L13.83 22.52C14.03 22.29 14.13 22 14.13 21.71ZM21.08 20.8C20.61 20.8 20.22 21.21 20.22 21.71C20.22 22.21 20.61 22.62 21.08 22.62L22.61 22.62C23.09 22.62 23.47 22.21 23.47 21.71C23.47 21.21 23.09 20.8 22.61 20.8L21.08 20.8Z" fill="#818181" fill-opacity="1.000000" fill-rule="evenodd"/>
	</g>
</svg>
