<svg width="47.061035" height="41.455078" viewBox="0 0 47.061 41.4551" fill="none" xmlns="http://www.w3.org/2000/svg" xmlns:xlink="http://www.w3.org/1999/xlink">
	<desc>
			Created with Pixso.
	</desc>
	<defs>
		<clipPath id="clip1_9884">
			<rect id="профиль" rx="0.000000" width="29.000000" height="29.000000" transform="translate(0.500000 0.500000)" fill="white" fill-opacity="0"/>
		</clipPath>
	</defs>
	<g clip-path="url(#clip1_9884)">
		<path id="профиль" d="M15 15.86L14.96 15.86C11.5 15.84 8.7 12.85 8.71 9.17C8.71 5.49 11.53 2.5 15 2.5C18.46 2.5 21.28 5.49 21.28 9.18C21.28 12.86 18.46 15.86 15 15.86ZM15 4.29C12.46 4.29 10.4 6.48 10.4 9.18C10.39 11.86 12.44 14.05 14.96 14.06L15 14.06C17.53 14.06 19.59 11.87 19.59 9.18C19.59 6.48 17.53 4.29 15 4.29ZM15 27.5C12.68 27.5 5.62 27.5 5.62 22.84C5.62 18.7 10.97 18.22 15 18.22C17.32 18.22 24.37 18.22 24.37 22.87C24.37 27.02 19.02 27.5 15 27.5ZM15 20.1C9.95 20.1 7.4 21.03 7.4 22.84C7.4 24.68 9.95 25.61 15 25.61C20.04 25.61 22.59 24.69 22.59 22.87C22.59 21.03 20.04 20.1 15 20.1Z" fill="#818181" fill-opacity="1.000000" fill-rule="evenodd"/>
	</g>
</svg>
