<svg width="30.000000" height="41.050781" viewBox="0 0 30 41.0508" fill="none" xmlns="http://www.w3.org/2000/svg" xmlns:xlink="http://www.w3.org/1999/xlink">
	<desc>
			Created with Pixso.
	</desc>
	<defs>
		<clipPath id="clip1_9873">
			<rect id="Магазин" rx="0.000000" width="29.000000" height="29.000000" transform="translate(0.500000 0.500000)" fill="white" fill-opacity="0"/>
		</clipPath>
	</defs>
	<g clip-path="url(#clip1_9873)">
		<path id="Vector" d="M24.12 3.13C22.6 1.62 20.15 1.62 18.64 3.13L15.89 5.87C14.38 7.39 14.38 9.84 15.89 11.35L18.64 14.1C20.15 15.61 22.6 15.61 24.12 14.1L26.86 11.35C28.37 9.84 28.37 7.39 26.86 5.87L24.12 3.13ZM5.87 2.8C3.73 2.8 2 4.53 2 6.67L2 10.55C2 12.69 3.73 14.43 5.87 14.43L9.75 14.43C11.89 14.43 13.62 12.69 13.62 10.55L13.62 6.67C13.62 4.53 11.89 2.8 9.75 2.8L5.87 2.8ZM20.01 4.5C20.76 3.74 21.99 3.74 22.75 4.5L25.49 7.24C26.25 8 26.25 9.23 25.49 9.98L22.75 12.72C21.99 13.48 20.76 13.48 20.01 12.72L17.27 9.98C16.51 9.23 16.51 8 17.27 7.24L20.01 4.5ZM3.93 6.67C3.93 5.6 4.8 4.74 5.87 4.74L9.75 4.74C10.82 4.74 11.69 5.6 11.69 6.67L11.69 10.55C11.69 11.62 10.82 12.49 9.75 12.49L5.87 12.49C4.8 12.49 3.93 11.62 3.93 10.55L3.93 6.67ZM2 20.24C2 18.1 3.73 16.37 5.87 16.37L9.75 16.37C11.89 16.37 13.62 18.1 13.62 20.24L13.62 24.12C13.62 26.26 11.89 28 9.75 28L5.87 28C3.73 28 2 26.26 2 24.12L2 20.24ZM19.44 16.37C17.3 16.37 15.56 18.1 15.56 20.24L15.56 24.12C15.56 26.26 17.3 28 19.44 28L23.32 28C25.46 28 27.19 26.26 27.19 24.12L27.19 20.24C27.19 18.1 25.46 16.37 23.32 16.37L19.44 16.37ZM5.87 18.3C4.8 18.3 3.93 19.17 3.93 20.24L3.93 24.12C3.93 25.19 4.8 26.06 5.87 26.06L9.75 26.06C10.82 26.06 11.69 25.19 11.69 24.12L11.69 20.24C11.69 19.17 10.82 18.3 9.75 18.3L5.87 18.3ZM17.5 20.24C17.5 19.17 18.37 18.3 19.44 18.3L23.32 18.3C24.39 18.3 25.25 19.17 25.25 20.24L25.25 24.12C25.25 25.19 24.39 26.06 23.32 26.06L19.44 26.06C18.37 26.06 17.5 25.19 17.5 24.12L17.5 20.24Z" fill="#FFFFFF" fill-opacity="1.000000" fill-rule="evenodd"/>
	</g>
</svg>

