<svg width="420.000000" height="82.000000" viewBox="0 0 420 82" fill="none" xmlns="http://www.w3.org/2000/svg" xmlns:xlink="http://www.w3.org/1999/xlink">
	<desc>
			Created with Pixso.
	</desc>
	<defs>
		<filter id="filter_1_10387_dd" x="0.000000" y="0.000000" width="420.000000" height="82.000000" filterUnits="userSpaceOnUse" color-interpolation-filters="sRGB">
			<feFlood flood-opacity="0" result="BackgroundImageFix"/>
			<feColorMatrix in="SourceAlpha" type="matrix" values="0 0 0 0 0 0 0 0 0 0 0 0 0 0 0 0 0 0 127 0" result="hardAlpha"/>
			<feOffset dx="0" dy="0"/>
			<feGaussianBlur stdDeviation="5"/>
			<feComposite in2="hardAlpha" operator="out" k2="-1" k3="1"/>
			<feColorMatrix type="matrix" values="0 0 0 0 0.51373 0 0 0 0 0.17255 0 0 0 0 0.94902 0 0 0 0.15 0"/>
			<feBlend mode="normal" in2="BackgroundImageFix" result="effect_dropShadow_1"/>
			<feBlend mode="normal" in="SourceGraphic" in2="effect_dropShadow_1" result="shape"/>
		</filter>
		<linearGradient x1="29.845623" y1="41.000000" x2="86.345627" y2="41.000000" id="paint_linear_1_10389_0" gradientUnits="userSpaceOnUse">
			<stop stop-color="#832CF2"/>
			<stop offset="1.000000" stop-color="#212223"/>
		</linearGradient>
	</defs>
	<g filter="url(#filter_1_10387_dd)">
		<path id="Union" d="M56 67C66.46 67 75.48 60.81 79.61 51.9C80.88 49.13 83.45 47 86.5 47L86.5 35C83.45 35 80.88 32.86 79.61 30.09C75.48 21.18 66.46 15 56 15C41.64 15 30 26.64 30 41C30 55.35 41.64 67 56 67Z" fill="#212223" fill-opacity="1.000000" fill-rule="nonzero"/>
		<path id="Union" d="M56 67C66.46 67 75.48 60.81 79.61 51.9C80.88 49.13 83.45 47 86.5 47L86.5 35C83.45 35 80.88 32.86 79.61 30.09C75.48 21.18 66.46 15 56 15C41.64 15 30 26.64 30 41C30 55.35 41.64 67 56 67Z" fill="url(#paint_linear_1_10389_0)" fill-opacity="1.000000" fill-rule="nonzero"/>
		<circle id="Ellipse 155" cx="56.000000" cy="41.000000" r="21.000000" fill="#0E0F0F" fill-opacity="1.000000"/>
		<path id="1" d="M50.98 38.32L54.58 38.32L54.58 47.56L59.32 47.56L59.32 32.68L55.72 32.68C55.1 34.52 54.04 35.06 50.98 35.06L50.98 38.32Z" fill="#FFFFFF" fill-opacity="1.000000" fill-rule="evenodd"/>
		<rect id="Rectangle 6" x="86.500000" y="35.000000" width="41.666668" height="12.000000" fill="#212223" fill-opacity="1.000000"/>
		<path id="Union" d="M158.66 15C148.2 15 139.17 21.18 135.05 30.09C133.77 32.86 131.21 35 128.16 35L128.16 47C131.21 47 133.77 49.13 135.05 51.9C139.17 60.81 148.2 67 158.66 67C169.13 67 178.15 60.81 182.27 51.9C183.55 49.13 186.12 47 189.16 47L189.16 35C186.12 35 183.55 32.86 182.27 30.09C178.15 21.18 169.13 15 158.66 15Z" fill="#212223" fill-opacity="1.000000" fill-rule="nonzero"/>
		<circle id="Ellipse 155" cx="159.000000" cy="41.000000" r="21.000000" fill="#0E0F0F" fill-opacity="1.000000"/>
		<path id="2" d="M151.17 47.56L167.58 47.56L167.58 43.78L155.28 43.78C155.28 43.46 155.75 42.98 158.66 42.38C159.36 42.22 160.2 42.06 161 41.9C165.48 41.1 167.26 39.98 167.26 37.32L167.26 37.16C167.26 34.52 165.62 32.48 159.86 32.48L158.86 32.48C152.36 32.48 151.44 35.84 151.44 37.84L151.44 37.98L156.36 37.98C156.42 37.3 156.6 35.86 159.42 35.86C161.75 35.86 162.24 36.43 162.24 37.16L162.24 37.18C162.24 37.82 161.82 38.2 159.67 38.74L157.42 39.36C151.7 40.96 151.17 42.98 151.17 45.18L151.17 47.56Z" fill="#FFFFFF" fill-opacity="1.000000" fill-rule="evenodd"/>
		<rect id="Rectangle 8" x="189.166992" y="35.000000" width="41.666664" height="12.000000" fill="#212223" fill-opacity="1.000000"/>
		<path id="Union" d="M261.33 15C250.86 15 241.84 21.18 237.72 30.09C236.44 32.86 233.87 35 230.83 35L230.83 47C233.87 47 236.44 49.13 237.72 51.9C241.84 60.81 250.86 67 261.33 67C271.79 67 280.82 60.81 284.94 51.9C286.22 49.13 288.78 47 291.83 47L291.83 35C288.78 35 286.22 32.86 284.94 30.09C280.82 21.18 271.79 15 261.33 15Z" fill="#212223" fill-opacity="1.000000" fill-rule="nonzero"/>
		<circle id="Ellipse 155" cx="261.000000" cy="41.000000" r="21.000000" fill="#0E0F0F" fill-opacity="1.000000"/>
		<path id="3" d="M259.7 47.78L260.64 47.78C267.5 47.78 268.78 44.94 268.78 42.68L268.78 42.56C268.78 40.46 267.32 39.46 265.96 39.14C267.16 38.82 268.29 38 268.29 36.41L268.29 36.28C268.29 34.62 267.24 32.48 260.62 32.48L259.46 32.48C252.82 32.48 252.12 35.75 252.12 37.09L252.12 37.34L256.96 37.34C257.01 37.02 257.12 35.9 260.2 35.9C263.29 35.9 263.56 36.59 263.56 37.22C263.56 37.75 263.26 38.25 261.9 38.25L257.34 38.25L257.34 41.46L261.92 41.46C263.38 41.46 263.76 41.94 263.76 42.6L263.76 42.62C263.76 43.28 263.38 44.18 260.26 44.18C257.16 44.18 256.94 42.82 256.88 42.4L251.92 42.4L251.92 42.62C251.92 44.22 252.86 47.78 259.7 47.78Z" fill="#FFFFFF" fill-opacity="1.000000" fill-rule="evenodd"/>
		<rect id="Rectangle 7" x="291.833008" y="35.000000" width="41.666664" height="12.000000" fill="#212223" fill-opacity="1.000000"/>
		<path id="Union" d="M364 67C353.53 67 344.51 60.81 340.39 51.9C339.11 49.13 336.54 47 333.5 47L333.5 35C336.54 35 339.11 32.86 340.39 30.09C344.51 21.18 353.53 15 364 15C378.35 15 390 26.64 390 41C390 55.35 378.35 67 364 67Z" fill="#212223" fill-opacity="1.000000" fill-rule="nonzero"/>
		<circle id="Ellipse 155" cx="364.000000" cy="41.000000" r="21.000000" fill="#0E0F0F" fill-opacity="1.000000"/>
		<path id="4" d="M354.98 41.64L354.98 44.54L364.62 44.54L364.62 47.56L369.34 47.56L369.34 44.54L372.62 44.54L372.62 41.06L369.34 41.06L369.34 32.58L363.26 32.58L354.98 41.64ZM364.62 35.66L364.62 41.06L359.72 41.06L364.62 35.66Z" fill="#FFFFFF" fill-opacity="1.000000" fill-rule="evenodd"/>
	</g>
</svg>
